<?xml version="1.0" encoding="utf-8"?>
<!-- Generator: Adobe Illustrator 18.0.0, SVG Export Plug-In . SVG Version: 6.00 Build 0)  -->
<!DOCTYPE svg PUBLIC "-//W3C//DTD SVG 1.1//EN" "http://www.w3.org/Graphics/SVG/1.1/DTD/svg11.dtd">
<svg version="1.1" id="Layer_3" xmlns="http://www.w3.org/2000/svg" xmlns:xlink="http://www.w3.org/1999/xlink" x="0px" y="0px"
	 viewBox="0 0 104.2 34.1" enable-background="new 0 0 104.2 34.1" xml:space="preserve">
<g>
	<g>
		<g>
			<path fill="#6D6E71" d="M52,10.7h-1l-1.2-3.5l-1.2,3.5h-1l-1.8-5.3H47l1.1,3.6l1.2-3.6h1l1.2,3.6l1.1-3.6h1.2L52,10.7z"/>
			<path fill="#6D6E71" d="M58,9h-2.8c0.1,0.5,0.5,0.8,1,0.8c0.4,0,0.7-0.1,1-0.4l0.7,0.6c-0.4,0.5-0.9,0.8-1.7,0.8
				c-1.2,0-2.1-0.9-2.1-2.1v0c0-1.2,0.8-2.1,2-2.1c1.4,0,2,1.1,2,2.2v0C58,8.8,58,8.9,58,9z M56,7.4c-0.5,0-0.8,0.3-0.9,0.9h1.7
				C56.8,7.8,56.5,7.4,56,7.4z"/>
			<path fill="#6D6E71" d="M60.5,10.7c-0.6,0-1.2-0.2-1.7-0.6l0.5-0.8c0.4,0.3,0.9,0.5,1.3,0.5c0.3,0,0.5-0.1,0.5-0.3v0
				c0-0.2-0.4-0.3-0.8-0.5c-0.6-0.2-1.2-0.4-1.2-1.2v0c0-0.8,0.7-1.3,1.5-1.3c0.5,0,1.1,0.2,1.5,0.5l-0.4,0.8
				c-0.4-0.2-0.8-0.4-1.1-0.4c-0.3,0-0.4,0.1-0.4,0.3v0c0,0.2,0.4,0.3,0.8,0.5C61.4,8.4,62,8.6,62,9.4v0
				C62,10.3,61.3,10.7,60.5,10.7z"/>
			<path fill="#6D6E71" d="M64.3,10.7c-0.7,0-1.2-0.3-1.2-1.2V7.6h-0.5v-1h0.5v-1h1.2v1h1v1h-1v1.7c0,0.3,0.1,0.4,0.4,0.4
				c0.2,0,0.4-0.1,0.6-0.1v0.9C65,10.6,64.7,10.7,64.3,10.7z"/>
			<path fill="#6D6E71" d="M67.7,10.7c-0.6,0-1.2-0.2-1.7-0.6l0.5-0.8c0.4,0.3,0.9,0.5,1.3,0.5c0.3,0,0.5-0.1,0.5-0.3v0
				c0-0.2-0.4-0.3-0.8-0.5c-0.6-0.2-1.2-0.4-1.2-1.2v0c0-0.8,0.7-1.3,1.5-1.3c0.5,0,1.1,0.2,1.5,0.5l-0.4,0.8
				c-0.4-0.2-0.8-0.4-1.1-0.4c-0.3,0-0.4,0.1-0.4,0.3v0c0,0.2,0.4,0.3,0.8,0.5c0.6,0.2,1.2,0.5,1.2,1.2v0
				C69.3,10.3,68.6,10.7,67.7,10.7z"/>
			<path fill="#6D6E71" d="M70.3,6.1v-1h1.2v1H70.3z M70.3,10.6V6.6h1.2v4.1H70.3z"/>
			<path fill="#6D6E71" d="M75.7,10.6v-0.6c-0.3,0.4-0.7,0.7-1.3,0.7c-0.9,0-1.8-0.7-1.8-2.1v0c0-1.4,0.9-2.1,1.8-2.1
				c0.6,0,1,0.3,1.3,0.6v-2h1.2v5.5H75.7z M75.7,8.6c0-0.7-0.4-1.1-1-1.1c-0.5,0-1,0.4-1,1.1v0c0,0.7,0.5,1.1,1,1.1
				C75.2,9.7,75.7,9.3,75.7,8.6L75.7,8.6z"/>
			<path fill="#6D6E71" d="M81.8,9H79c0.1,0.5,0.5,0.8,1,0.8c0.4,0,0.7-0.1,1-0.4l0.7,0.6c-0.4,0.5-0.9,0.8-1.7,0.8
				c-1.2,0-2.1-0.9-2.1-2.1v0c0-1.2,0.8-2.1,2-2.1c1.4,0,2,1.1,2,2.2v0C81.8,8.8,81.8,8.9,81.8,9z M79.8,7.4c-0.5,0-0.8,0.3-0.9,0.9
				h1.7C80.6,7.8,80.3,7.4,79.8,7.4z"/>
			<path fill="#6D6E71" d="M48.8,15.5v4.2h-1.2v-4.2H46v-1.1h4.4v1.1H48.8z"/>
			<path fill="#6D6E71" d="M53.3,16.8c-0.8,0-1.2,0.5-1.2,1.4v1.5h-1.2v-4.1H52v0.8c0.2-0.6,0.6-0.9,1.3-0.9L53.3,16.8L53.3,16.8z"
				/>
			<path fill="#6D6E71" d="M56.4,19.7v-0.4c-0.3,0.3-0.7,0.5-1.2,0.5c-0.8,0-1.4-0.4-1.4-1.2v0c0-0.9,0.7-1.3,1.6-1.3
				c0.4,0,0.7,0.1,1,0.2v-0.1c0-0.5-0.3-0.7-0.9-0.7c-0.4,0-0.7,0.1-1.1,0.2l-0.3-0.9c0.4-0.2,0.9-0.3,1.6-0.3
				c1.3,0,1.8,0.7,1.8,1.7v2.4H56.4z M56.5,18.1c-0.2-0.1-0.5-0.2-0.7-0.2c-0.5,0-0.8,0.2-0.8,0.6v0c0,0.3,0.3,0.5,0.6,0.5
				c0.5,0,0.9-0.3,0.9-0.7V18.1z"/>
			<path fill="#6D6E71" d="M61.3,19.7v-2.3c0-0.5-0.3-0.8-0.7-0.8c-0.4,0-0.7,0.3-0.7,0.8v2.3h-1.2v-4.1h1.2v0.6
				c0.3-0.3,0.6-0.7,1.2-0.7c0.9,0,1.4,0.6,1.4,1.5v2.6H61.3z"/>
			<path fill="#6D6E71" d="M65.1,19.8c-0.6,0-1.2-0.2-1.7-0.6l0.5-0.8c0.4,0.3,0.9,0.5,1.3,0.5c0.3,0,0.5-0.1,0.5-0.3v0
				c0-0.2-0.4-0.3-0.8-0.5c-0.6-0.2-1.2-0.4-1.2-1.2v0c0-0.8,0.7-1.3,1.5-1.3c0.5,0,1.1,0.2,1.5,0.5l-0.4,0.8
				c-0.4-0.2-0.8-0.4-1.1-0.4c-0.3,0-0.4,0.1-0.4,0.3v0c0,0.2,0.4,0.3,0.8,0.5c0.6,0.2,1.2,0.5,1.2,1.2v0
				C66.6,19.4,65.9,19.8,65.1,19.8z"/>
			<path fill="#6D6E71" d="M70,19.8c-0.6,0-1-0.3-1.3-0.6v1.7h-1.2v-5.3h1.2v0.6c0.3-0.4,0.7-0.7,1.3-0.7c0.9,0,1.8,0.7,1.8,2.1v0
				C71.9,19.1,71,19.8,70,19.8z M70.7,17.7c0-0.7-0.5-1.1-1-1.1c-0.5,0-1,0.4-1,1.1v0c0,0.7,0.4,1.1,1,1.1
				C70.3,18.8,70.7,18.4,70.7,17.7L70.7,17.7z"/>
			<path fill="#6D6E71" d="M74.9,19.8c-1.3,0-2.2-0.9-2.2-2.1v0c0-1.2,0.9-2.1,2.2-2.1c1.3,0,2.2,0.9,2.2,2.1v0
				C77.1,18.9,76.2,19.8,74.9,19.8z M76,17.7c0-0.6-0.4-1.1-1.1-1.1c-0.7,0-1.1,0.5-1.1,1.1v0c0,0.6,0.4,1.1,1.1,1.1
				C75.6,18.8,76,18.3,76,17.7L76,17.7z"/>
			<path fill="#6D6E71" d="M80.5,16.8c-0.8,0-1.2,0.5-1.2,1.4v1.5h-1.2v-4.1h1.2v0.8c0.2-0.6,0.6-0.9,1.3-0.9L80.5,16.8L80.5,16.8z"
				/>
			<path fill="#6D6E71" d="M82.9,19.8c-0.7,0-1.2-0.3-1.2-1.2v-1.9h-0.5v-1h0.5v-1h1.2v1h1v1h-1v1.7c0,0.3,0.1,0.4,0.4,0.4
				c0.2,0,0.4-0.1,0.6-0.1v0.9C83.5,19.7,83.2,19.8,82.9,19.8z"/>
			<path fill="#6D6E71" d="M87.2,19.7v-0.4c-0.3,0.3-0.7,0.5-1.2,0.5c-0.8,0-1.4-0.4-1.4-1.2v0c0-0.9,0.7-1.3,1.6-1.3
				c0.4,0,0.7,0.1,1,0.2v-0.1c0-0.5-0.3-0.7-0.9-0.7c-0.4,0-0.7,0.1-1.1,0.2l-0.3-0.9c0.4-0.2,0.9-0.3,1.6-0.3
				c1.3,0,1.8,0.7,1.8,1.7v2.4H87.2z M87.2,18.1c-0.2-0.1-0.5-0.2-0.7-0.2c-0.5,0-0.8,0.2-0.8,0.6v0c0,0.3,0.3,0.5,0.6,0.5
				c0.5,0,0.9-0.3,0.9-0.7V18.1z"/>
			<path fill="#6D6E71" d="M90.8,19.8c-0.7,0-1.2-0.3-1.2-1.2v-1.9h-0.5v-1h0.5v-1h1.2v1h1v1h-1v1.7c0,0.3,0.1,0.4,0.4,0.4
				c0.2,0,0.4-0.1,0.6-0.1v0.9C91.5,19.7,91.2,19.8,90.8,19.8z"/>
			<path fill="#6D6E71" d="M92.8,15.2v-1H94v1H92.8z M92.8,19.7v-4.1H94v4.1H92.8z"/>
			<path fill="#6D6E71" d="M97.2,19.8c-1.3,0-2.2-0.9-2.2-2.1v0c0-1.2,0.9-2.1,2.2-2.1c1.3,0,2.2,0.9,2.2,2.1v0
				C99.5,18.9,98.5,19.8,97.2,19.8z M98.3,17.7c0-0.6-0.4-1.1-1.1-1.1c-0.7,0-1.1,0.5-1.1,1.1v0c0,0.6,0.4,1.1,1.1,1.1
				C97.9,18.8,98.3,18.3,98.3,17.7L98.3,17.7z"/>
			<path fill="#6D6E71" d="M103,19.7v-2.3c0-0.5-0.3-0.8-0.7-0.8c-0.4,0-0.7,0.3-0.7,0.8v2.3h-1.2v-4.1h1.2v0.6
				c0.3-0.3,0.6-0.7,1.2-0.7c0.9,0,1.4,0.6,1.4,1.5v2.6H103z"/>
			<path fill="#6D6E71" d="M50.3,28.8l-0.5-1.2h-2.2l-0.5,1.2h-1.2l2.3-5.3h1.1l2.3,5.3H50.3z M48.7,24.9L48,26.6h1.4L48.7,24.9z"/>
			<path fill="#6D6E71" d="M52.5,28.8v-5.5h1.2v5.5H52.5z"/>
			<path fill="#6D6E71" d="M55,28.8v-5.5h1.2v5.5H55z"/>
			<path fill="#6D6E71" d="M57.4,24.3v-1h1.2v1H57.4z M57.4,28.8v-4.1h1.2v4.1H57.4z"/>
			<path fill="#6D6E71" d="M62.2,28.8v-0.4c-0.3,0.3-0.7,0.5-1.2,0.5c-0.8,0-1.4-0.4-1.4-1.2v0c0-0.9,0.7-1.3,1.6-1.3
				c0.4,0,0.7,0.1,1,0.2v-0.1c0-0.5-0.3-0.7-0.9-0.7c-0.4,0-0.7,0.1-1.1,0.2L60,25c0.4-0.2,0.9-0.3,1.6-0.3c1.3,0,1.8,0.7,1.8,1.7
				v2.4H62.2z M62.2,27.2c-0.2-0.1-0.5-0.2-0.7-0.2c-0.5,0-0.8,0.2-0.8,0.6v0c0,0.3,0.3,0.5,0.6,0.5c0.5,0,0.9-0.3,0.9-0.7V27.2z"/>
			<path fill="#6D6E71" d="M67.1,28.8v-2.3c0-0.5-0.3-0.8-0.7-0.8s-0.7,0.3-0.7,0.8v2.3h-1.2v-4.1h1.2v0.6c0.3-0.3,0.6-0.7,1.2-0.7
				c0.9,0,1.4,0.6,1.4,1.5v2.6H67.1z"/>
			<path fill="#6D6E71" d="M71.3,28.9c-1.2,0-2.1-0.9-2.1-2.1v0c0-1.2,0.9-2.1,2.1-2.1c0.8,0,1.2,0.3,1.6,0.7l-0.7,0.8
				c-0.3-0.3-0.5-0.4-0.9-0.4c-0.6,0-1,0.5-1,1.1v0c0,0.6,0.4,1.1,1,1.1c0.4,0,0.7-0.2,0.9-0.4l0.7,0.7
				C72.6,28.6,72.1,28.9,71.3,28.9z"/>
			<path fill="#6D6E71" d="M77.6,27.2h-2.8c0.1,0.5,0.5,0.8,1,0.8c0.4,0,0.7-0.1,1-0.4l0.7,0.6c-0.4,0.5-0.9,0.8-1.7,0.8
				c-1.2,0-2.1-0.9-2.1-2.1v0c0-1.2,0.8-2.1,2-2.1c1.4,0,2,1.1,2,2.2v0C77.6,27,77.6,27.1,77.6,27.2z M75.6,25.6
				c-0.5,0-0.8,0.3-0.9,0.9h1.7C76.4,25.9,76.1,25.6,75.6,25.6z"/>
		</g>
		<rect x="40.1" y="3.6" fill="#6D6E71" width="0.6" height="26.9"/>
	</g>
	<g>
		<path fill="#FBB040" d="M26,13.4l5.8-5.8L30,5.9l-7.5,7.5l-0.7,0.7c0.3,0.5,0.6,1.1,0.7,1.8h1h10.6v-2.5H26z"/>
		<path fill="#FBB040" d="M20.1,12.4l0.7-0.7v0l7.5-7.5l-1.8-1.8l-5.8,5.8V0h-2.5v10.6v1C18.9,11.8,19.5,12,20.1,12.4L20.1,12.4z"/>
		<path fill="#FBB040" d="M11.6,18.3h-1H0v2.5h8.1l-5.8,5.8l1.8,1.8l8.2-8.2C12,19.5,11.7,18.9,11.6,18.3z"/>
		<path fill="#FBB040" d="M5.9,30l1.8,1.8l5.8-5.8v8.1h2.5V23.5v-1c-0.6-0.1-1.2-0.4-1.8-0.7L5.9,30z"/>
		<path fill="#FBB040" d="M22.5,18.3c-0.1,0.6-0.4,1.2-0.7,1.8v0l0.7,0.7h0l7.5,7.5l1.8-1.8L26,20.8h8.1v-2.5H23.5H22.5z"/>
		<path fill="#FBB040" d="M20.1,21.8c-0.5,0.3-1.1,0.6-1.8,0.7v1v10.6h2.5V26l5.8,5.8l1.8-1.8l-7.5-7.5L20.1,21.8z"/>
		<path fill="#FBB040" d="M11.6,15.8c0.1-0.6,0.4-1.3,0.7-1.8v0L4.1,5.9L2.4,7.6l5.8,5.8H0v2.5h10.6H11.6z"/>
		<path fill="#FBB040" d="M13.4,8.1L7.6,2.4L5.9,4.1l7.5,7.5v0l0.7,0.7v0c0.5-0.3,1.1-0.6,1.8-0.7v-1V0h-2.5V8.1z"/>
	</g>
</g>
</svg>
