<?xml version="1.0" encoding="utf-8"?>
<!-- Generator: Adobe Illustrator 21.0.2, SVG Export Plug-In . SVG Version: 6.00 Build 0)  -->
<svg version="1.1" id="Layer_3" xmlns="http://www.w3.org/2000/svg" xmlns:xlink="http://www.w3.org/1999/xlink" x="0px" y="0px"
	 viewBox="0 0 500 500" style="enable-background:new 0 0 500 500;" xml:space="preserve">
<style type="text/css">
	.st0{fill:#FBB040;}
</style>
<g>
	<path class="st0" d="M381.2,196.5l85-85l-26.4-24.9l-110,110l-10.3,10.3c4.4,7.3,8.8,16.1,10.3,26.4h14.7H500v-36.7H381.2z"/>
	<path class="st0" d="M294.7,181.8l10.3-10.3l0,0l110-110l-26.4-26.4l-85,85V0h-36.7v155.4v14.7C277.1,173,285.9,176,294.7,181.8
		L294.7,181.8z"/>
	<path class="st0" d="M170.1,268.3h-14.7H0V305h118.8l-85,85l26.4,26.4l120.2-120.2C176,285.9,171.6,277.1,170.1,268.3z"/>
	<path class="st0" d="M86.5,439.9l26.4,26.4l85-85V500h36.7V344.6v-14.7c-8.8-1.5-17.6-5.9-26.4-10.3L86.5,439.9z"/>
	<path class="st0" d="M329.9,268.3c-1.5,8.8-5.9,17.6-10.3,26.4l0,0l10.3,10.3l0,0l110,110l26.4-26.4l-85-83.6H500v-36.7H344.6
		H329.9z"/>
	<path class="st0" d="M294.7,319.7c-7.3,4.4-16.1,8.8-26.4,10.3v14.7V500H305V381.2l85,85l26.4-26.4l-110-110L294.7,319.7z"/>
	<path class="st0" d="M170.1,231.7c1.5-8.8,5.9-19.1,10.3-26.4l0,0L60.1,86.5l-24.9,24.9l85,85H0v36.7h155.4h14.7V231.7z"/>
	<path class="st0" d="M196.5,118.8l-85-83.6L86.5,60.1l110,110l0,0l10.3,10.3l0,0c7.3-4.4,16.1-8.8,26.4-10.3v-14.7V0h-36.7V118.8z"
		/>
</g>
</svg>
