<?xml version="1.0" encoding="utf-8"?>
<!-- Generator: Adobe Illustrator 21.0.2, SVG Export Plug-In . SVG Version: 6.00 Build 0)  -->
<svg version="1.1" id="Layer_3" xmlns="http://www.w3.org/2000/svg" xmlns:xlink="http://www.w3.org/1999/xlink" x="0px" y="0px"
	 viewBox="0 0 50 50" style="enable-background:new 0 0 50 50;" xml:space="preserve">
<style type="text/css">
	.st0{fill:#FBB040;}
</style>
<g>
	<path class="st0" d="M38.1,19.6l8.5-8.5L44,8.7l-11,11l-1,1c0.4,0.7,0.9,1.6,1,2.6h1.5H50v-3.7H38.1z"/>
	<path class="st0" d="M29.5,18.2l1-1l0,0l11-11l-2.6-2.6L30.4,12V0h-3.7v15.5V17C27.7,17.3,28.6,17.6,29.5,18.2L29.5,18.2z"/>
	<path class="st0" d="M17,26.8h-1.5H0v3.7h11.9L3.4,39L6,41.6l12-12C17.6,28.6,17.2,27.7,17,26.8z"/>
	<path class="st0" d="M8.7,44l2.6,2.6l8.5-8.5V50h3.7V34.5V33c-0.9-0.1-1.8-0.6-2.6-1L8.7,44z"/>
	<path class="st0" d="M33,26.8c-0.1,0.9-0.6,1.8-1,2.6l0,0l1,1l0,0l11,11l2.6-2.6l-8.5-8.4H50v-3.7H34.5H33z"/>
	<path class="st0" d="M29.5,32c-0.7,0.4-1.6,0.9-2.6,1v1.5V50h3.7V38.1l8.5,8.5l2.6-2.6l-11-11L29.5,32z"/>
	<path class="st0" d="M17,23.2c0.1-0.9,0.6-1.9,1-2.6l0,0L6,8.7l-2.5,2.5l8.5,8.5H0v3.7h15.5H17V23.2z"/>
	<path class="st0" d="M19.6,11.9l-8.5-8.4L8.7,6l11,11l0,0l1,1l0,0c0.7-0.4,1.6-0.9,2.6-1v-1.5V0h-3.7V11.9z"/>
</g>
</svg>
